<svg width="26" height="26" viewBox="0 0 26 26" fill="none" xmlns="http://www.w3.org/2000/svg">
<path fill-rule="evenodd" clip-rule="evenodd" d="M4.0625 2.4375C2.26757 2.4375 0.8125 3.89257 0.8125 5.6875V20.3125C0.8125 22.1074 2.26757 23.5625 4.0625 23.5625H12.1875C13.7019 23.5625 14.9743 22.5267 15.3351 21.125H17.875C19.3894 21.125 20.6618 20.0892 21.0226 18.6875H21.9375C23.7324 18.6875 25.1875 17.2324 25.1875 15.4375V10.5625C25.1875 8.76757 23.7324 7.3125 21.9375 7.3125H21.0226C20.6618 5.91075 19.3894 4.875 17.875 4.875H15.3351C14.9743 3.47325 13.7019 2.4375 12.1875 2.4375H4.0625ZM12.1875 4.46875H4.0625C3.3894 4.46875 2.84375 5.0144 2.84375 5.6875V20.3125C2.84375 20.9856 3.3894 21.5312 4.0625 21.5312H12.1875C12.8606 21.5312 13.4062 20.9856 13.4062 20.3125V5.6875C13.4062 5.0144 12.8606 4.46875 12.1875 4.46875ZM21.125 9.34375V16.6562H21.9375C22.6106 16.6562 23.1562 16.1106 23.1562 15.4375V10.5625C23.1562 9.8894 22.6106 9.34375 21.9375 9.34375H21.125ZM17.875 19.0938H15.4375V6.90625H17.875C18.5481 6.90625 19.0938 7.4519 19.0938 8.125V17.875C19.0938 18.5481 18.5481 19.0938 17.875 19.0938Z" fill="currentColor"/>
</svg>
