<svg width="36" height="38" viewBox="0 0 36 38" fill="none" xmlns="http://www.w3.org/2000/svg">
<path d="M6.5 10L1.5 36.5L15.5 33L17.5 36.5L31.5 33L34.5 16.5H30L28.5 5.5" stroke="white"/>
<path d="M18.2977 4.96C19.1715 7.264 20.1182 9.28 20.4823 10C21.2104 8.92 21.9242 7.16278 22.6668 4.96C23.7591 1.72 21.9386 1 20.4822 1C19.39 1 17.2054 2.08 18.2977 4.96Z" stroke="white"/>
<path d="M10.2977 14.96C11.1715 17.264 12.1182 19.28 12.4823 20C13.2104 18.92 13.9242 17.1628 14.6668 14.96C15.7591 11.72 13.9386 11 12.4822 11C11.39 11 9.20541 12.08 10.2977 14.96Z" stroke="white"/>
<path d="M20.2977 23.96C21.1715 26.264 22.1182 28.28 22.4823 29C23.2104 27.92 23.9242 26.1628 24.6668 23.96C25.7591 20.72 23.9386 20 22.4822 20C21.39 20 19.2054 21.08 20.2977 23.96Z" stroke="white"/>
</svg>
