<svg width="32" height="19" viewBox="0 0 32 19" fill="none" xmlns="http://www.w3.org/2000/svg">
<path d="M16 1C7.47368 1 2.44737 7.18182 1 10.2727C3.5 12.8485 10 18 16 18C22 18 28.5 12.8485 31 10.2727C29.5526 7.18182 24.5263 1 16 1Z" stroke="white"/>
<path d="M21.8159 9.11364C21.8159 12.2416 19.2222 14.7955 16.0001 14.7955C12.778 14.7955 10.1843 12.2416 10.1843 9.11364C10.1843 5.98571 12.778 3.43182 16.0001 3.43182C19.2222 3.43182 21.8159 5.98571 21.8159 9.11364Z" stroke="white"/>
<path d="M18.6578 9.11364C18.6578 10.5345 17.478 11.7046 15.9999 11.7046C14.5219 11.7046 13.342 10.5345 13.342 9.11364C13.342 7.69278 14.5219 6.52274 15.9999 6.52274C17.478 6.52274 18.6578 7.69278 18.6578 9.11364Z" stroke="white"/>
</svg>
