<svg width="75" height="66" viewBox="0 0 75 66" fill="none" xmlns="http://www.w3.org/2000/svg">
<path d="M42.754 49.6238C40.185 38.4236 37.6838 27.5133 35.1825 16.6031C35.0906 16.6055 34.9988 16.608 34.907 16.6104C31.0185 26.8164 27.1324 37.0199 23.1231 47.5451C30.4119 41.9986 35.8495 42.4811 42.754 49.6214V49.6238ZM10.665 33.1354C10.1212 36.3522 9.58957 39.491 8.99748 42.9977C8.77031 42.2837 8.64464 41.9279 8.54555 41.5624C7.83263 38.989 7.13903 36.4107 6.39227 33.847C6.30527 33.5472 5.95485 33.1403 5.69384 33.1135C4.78275 33.0233 3.85715 33.0793 2.79138 33.0793C2.9243 33.5862 3.01372 33.9688 3.12247 34.3441C4.10365 37.729 5.08967 41.114 6.07085 44.4989C6.79344 46.987 6.79344 46.9212 9.32132 47.0017C10.4282 47.0358 10.7617 46.5825 10.9429 45.6028C11.4408 42.9125 12.0159 40.2342 12.4993 37.8606C12.869 39.759 13.2702 41.9499 13.7221 44.1285C14.3215 47.0187 14.3384 46.9846 17.2674 46.9773C18.065 46.9773 18.3912 46.6897 18.5942 45.9391C19.2274 43.5924 19.9403 41.2699 20.6097 38.9329C21.1535 37.0345 21.6779 35.1313 22.2386 33.1403H18.9616C18.0746 36.3497 17.1998 39.5251 16.3225 42.7004C15.8754 41.0896 15.6023 39.5129 15.3317 37.9362C15.0586 36.3497 14.7903 34.7608 14.5148 33.1378H10.6698L10.665 33.1354ZM45.4994 26.3704C44.9653 24.1893 44.4771 22.152 43.9527 20.1221C43.8705 19.8053 43.6409 19.2984 43.4403 19.2789C42.4906 19.1887 41.5263 19.2399 40.4171 19.2399C41.2605 22.2885 42.0338 25.052 42.7854 27.8228C43.4283 30.1891 43.4186 30.1331 45.8426 30.2037C46.9083 30.2354 47.3167 29.8699 47.5004 28.8342C47.7832 27.2404 48.2351 25.6783 48.6604 23.914C48.9964 25.2787 49.2501 26.424 49.5619 27.5499C50.3038 30.2305 50.3159 30.2037 53.0371 30.1721C53.7573 30.1623 54.098 29.9625 54.2744 29.2095C54.7626 27.121 55.3595 25.0593 55.9009 22.983C56.215 21.7792 56.5123 20.5705 56.8603 19.1911C56.2682 19.1911 55.8356 19.1911 55.403 19.1911C53.2304 19.2033 53.6968 19.0011 53.2183 20.9043C52.7737 22.6662 52.4619 24.4623 52.0535 26.4265C51.4686 24.182 50.8838 22.1691 50.4343 20.1245C50.1056 18.6282 49.0036 19.3617 48.2133 19.196C47.4062 19.0279 47.0847 19.4665 46.9228 20.2171C46.4902 22.2252 46.0021 24.221 45.5018 26.3704H45.4994ZM68.4726 46.8871C68.4726 44.9449 68.4532 43.0879 68.4847 41.231C68.4943 40.6729 68.5547 40.0905 68.7336 39.569C69.0236 38.7233 69.7244 38.4431 70.5703 38.5259C71.4355 38.6112 71.6892 39.2643 71.7448 39.9832C71.81 40.8313 71.7786 41.6867 71.781 42.5372C71.7859 43.975 71.781 45.4152 71.781 46.9505C72.7018 46.9505 73.422 46.931 74.1397 46.9554C74.7512 46.9773 75.0025 46.7287 74.9953 46.0976C74.9687 43.7045 75.0484 41.3065 74.9445 38.9183C74.8406 36.5374 72.8831 35.2166 70.6138 35.972C69.8453 36.2279 69.1952 36.8396 68.3928 37.3489V31.2955H65.3454V46.8871H68.4726ZM12.4848 30.1574C13.3427 30.1574 13.9831 30.1063 14.6115 30.1696C15.5153 30.2598 15.8029 29.904 15.7884 28.9999C15.7498 26.4825 15.7957 23.9651 15.8078 21.4478C15.8102 20.7337 15.8078 20.0197 15.8078 19.1838C16.4723 19.1838 16.9484 19.1838 17.4269 19.1838C18.9801 19.179 19.6874 18.391 19.5488 16.82C19.5343 16.664 19.4715 16.5129 19.399 16.24C17.6348 16.24 15.8706 16.24 14.1064 16.24C12.3422 16.24 10.5949 16.24 8.87423 16.24C8.57617 18.1782 9.31165 19.1562 11.0807 19.1741C11.1218 19.1741 11.1628 19.179 11.2015 19.1741C12.3035 18.9986 12.5355 19.5079 12.5089 20.5558C12.4364 23.6751 12.4824 26.7993 12.4824 30.1526L12.4848 30.1574ZM52.1888 43.953C51.5484 44.1187 50.9563 44.4282 50.398 44.3698C49.9582 44.3259 49.2259 43.8604 49.2018 43.5363C49.0785 41.9036 49.1462 40.2562 49.1462 38.5332C49.7769 38.5332 50.253 38.5332 50.7291 38.5332C51.2052 38.5332 51.7272 38.5332 52.2009 38.5332V36.0305H49.0882V33.3377C48.0224 33.4985 46.9639 33.423 46.1978 33.8665C45.7942 34.1004 45.9006 35.2336 45.7773 35.9574C45.2964 36.0207 44.8348 36.0792 44.3949 36.1377V38.4675C44.9194 38.5259 45.3447 38.5722 45.8909 38.6356C45.8909 40.2318 45.8957 41.7646 45.8909 43.2951C45.8788 46.195 47.2297 47.5378 50.0815 47.1893C53.4165 46.7799 52.9501 46.7994 52.1888 43.9555V43.953ZM61.2176 43.2219C60.2461 43.858 59.6202 44.5525 58.929 44.6281C58.3973 44.6841 57.5297 44.0919 57.2518 43.5558C56.5534 42.2082 56.5558 40.6875 57.3074 39.3545C57.5877 38.8574 58.3707 38.3992 58.9363 38.387C59.422 38.3773 59.9392 39.0036 60.4032 39.3984C60.5603 39.5324 60.5917 39.8151 60.7198 40.127C61.5946 39.8687 62.4187 39.6274 63.2259 39.3886C63.2066 38.0995 62.687 37.2222 61.7807 36.5812C59.0764 34.6707 54.8013 36.106 54.0303 39.3253C53.7041 40.6899 53.6968 42.2642 54.0134 43.6314C54.8013 47.0138 59.4317 48.4687 62.1118 46.2486C62.7402 45.7271 63.1123 44.8888 63.7068 44.0456C62.5468 43.6606 61.7131 43.3852 61.22 43.2219H61.2176ZM65.3139 9.1314C65.3139 6.28748 65.3357 3.49717 65.2753 0.709293C65.2704 0.470471 64.7194 0.0513152 64.4149 0.0440044C61.962 -0.0120456 59.5042 -0.0193564 57.0512 0.0464413C56.7491 0.0537522 56.2344 0.548454 56.1981 0.862821C55.8719 3.67506 55.896 3.67994 58.7308 3.6775C58.8928 3.6775 59.0523 3.6775 59.2142 3.6775C60.864 3.67425 61.6881 4.51175 61.6865 6.19C61.6832 8.41738 62.8924 9.39703 65.3139 9.12897V9.1314ZM0.0194214 4.60111C0.0194214 4.60111 0.0170047 4.60111 0.014588 4.60111C0.014588 5.77572 0.0484218 6.95033 0.00250444 8.12494C-0.0289127 8.94376 0.229675 9.28493 1.09485 9.26056C4.08915 9.18014 3.61064 9.6261 3.63723 6.80655C3.66864 3.66775 3.64448 3.69212 6.72819 3.67019C9.41557 3.6507 9.1304 4.23313 9.1739 1.11139C9.1739 1.03097 9.20531 0.916434 9.16423 0.872568C8.87906 0.57526 8.58422 0.0537522 8.28213 0.0440044C5.82918 -0.0217934 3.37864 0.0171979 0.928102 0.000139211C0.256258 -0.00229774 -0.00232897 0.2877 0.0121713 0.952988C0.038755 2.16903 0.0194214 3.38263 0.0194214 4.59867V4.60111ZM61.7227 56.8494C61.7227 58.3311 61.6599 59.7396 61.7445 61.1409C61.8049 62.14 61.4182 62.4056 60.5047 62.3691C59.1465 62.313 57.7835 62.3545 56.4664 62.3545C55.5408 65.3007 55.9685 65.9514 58.7357 65.9977C59.3785 66.0075 60.0214 65.9953 60.6642 65.9953C62.1771 65.9953 63.6875 65.9953 65.2076 65.9953V56.8543H61.7275L61.7227 56.8494ZM0.038755 56.8323C0.038755 59.7104 0.014588 62.4909 0.0822557 65.2691C0.0870891 65.5079 0.710599 65.9148 1.05619 65.927C2.90013 65.9953 4.74891 65.9612 6.59527 65.9685C9.32132 65.9782 9.38657 65.9343 9.03614 63.2147C8.99506 62.8979 8.51172 62.4227 8.19997 62.3935C7.08586 62.2911 5.95243 62.2984 4.8335 62.3666C3.86198 62.4251 3.57198 62.023 3.60823 61.097C3.66139 59.6958 3.62273 58.2896 3.62273 56.8323H0.0363383H0.038755ZM61.498 30.0746C61.498 24.9887 61.51 20.0465 61.4641 15.1019C61.4617 14.8412 61.0074 14.4878 60.6908 14.3562C60.3814 14.2271 59.973 14.3684 59.6178 14.3172C58.4626 14.1515 58.1097 14.5902 58.1412 15.7892C58.2402 19.5567 58.2064 23.3291 58.2233 27.0991C58.2282 28.0641 58.2233 29.0267 58.2233 30.0746H61.498ZM23.4059 19.1936C22.8839 19.1936 22.4392 19.2472 22.0138 19.1838C20.8224 19.0084 20.5082 19.525 20.5542 20.6752C20.6436 22.9416 20.6049 25.2153 20.6025 27.4865C20.5977 30.4182 20.5904 30.4182 23.5267 30.1038C23.5968 30.0965 23.6596 30.021 23.7273 29.9747C23.7587 29.8991 23.8143 29.826 23.8143 29.7505C23.8433 28.3736 23.8457 26.9943 23.8965 25.6174C23.9907 23.0878 24.694 22.4347 27.2315 22.4518C27.4176 22.4518 27.6061 22.4104 27.8429 22.3811C27.9517 21.2455 28.0532 20.1781 28.1619 19.0254C26.0908 18.8085 24.7447 19.642 23.8143 21.5136C23.662 20.6484 23.5485 20.0148 23.4035 19.196L23.4059 19.1936Z" fill="#1EE0AB"/>
</svg>
